<svg width="512" height="512" viewBox="0 0 512 512" fill="none" xmlns="http://www.w3.org/2000/svg">
    <!-- Background -->
    <rect width="512" height="512" fill="#D72828"/>
    
    <!-- Pot -->
    <g transform="translate(0, -20)">
        <!-- Pot Body -->
        <path d="M120 220 C 120 290, 392 290, 392 220 L 384 190 H 128 Z" fill="#C18943"/>
        <path d="M128 190 L 384 190 L 380 180 L 132 180 Z" fill="#A77239" />
        
        <!-- Left Handle -->
        <path d="M128 190 C 108 190, 108 210, 128 215" stroke="#A77239" stroke-width="8" fill="#C18943" />
        <!-- Right Handle -->
        <path d="M384 190 C 404 190, 404 210, 384 215" stroke="#A77239" stroke-width="8" fill="#C18943" />

        <!-- Soup -->
        <ellipse cx="256" cy="195" rx="120" ry="25" fill="#B33A3A"/>
        <path d="M156 190 C 196 180, 236 190, 276 180 S 356 190, 396 180" stroke="#D34F4F" stroke-width="4" fill="none"/>
        <path d="M156 200 C 196 190, 236 200, 276 190 S 356 200, 396 190" stroke="#D34F4F" stroke-width="4" fill="none"/>

        <!-- Egg Yolk -->
        <circle cx="256" cy="195" r="24" fill="#FFD966"/>
        <circle cx="256" cy="195" r="16" fill="#FFC700"/>
    </g>

    <!-- Text -->
    <style>
        .heavy-font { font-family: -apple-system, BlinkMacSystemFont, "Segoe UI", Roboto, Helvetica, Arial, sans-serif; font-weight: 800; fill: black; text-anchor: middle; }
        .thai-font { font-family: 'Sarabun', sans-serif; font-weight: 700; fill: black; text-anchor: middle; }
    </style>
    <text x="256" y="330" class="heavy-font" font-size="72">SEOUL</text>
    <text x="256" y="400" class="heavy-font" font-size="72">GOOD</text>
    <text x="256" y="465" class="thai-font" font-size="52">서울굿 โซลกู๊ด</text>
</svg>